<mxfile host="app.diagrams.net" agent="Mozilla/5.0 (Windows NT 10.0; Win64; x64) AppleWebKit/537.36 (KHTML, like Gecko) Chrome/135.0.0.0 Safari/537.36" version="26.2.14">
  <diagram name="Página-1" id="iTK0nIs8eEKl5HLrY0HY">
    <mxGraphModel dx="2386" dy="1603" grid="0" gridSize="10" guides="1" tooltips="1" connect="1" arrows="1" fold="1" page="0" pageScale="1" pageWidth="827" pageHeight="1169" math="0" shadow="0">
      <root>
        <mxCell id="0" />
        <mxCell id="1" parent="0" />
        <mxCell id="TubKobpjzzUn3Yk9qgdD-2" value="Cliente PF" style="rounded=0;whiteSpace=wrap;html=1;" vertex="1" parent="1">
          <mxGeometry x="-49" y="-280" width="120" height="60" as="geometry" />
        </mxCell>
        <mxCell id="TubKobpjzzUn3Yk9qgdD-3" value="Cliente PJ" style="rounded=0;whiteSpace=wrap;html=1;" vertex="1" parent="1">
          <mxGeometry x="494" y="-287" width="120" height="60" as="geometry" />
        </mxCell>
        <mxCell id="TubKobpjzzUn3Yk9qgdD-75" style="edgeStyle=none;curved=1;rounded=0;orthogonalLoop=1;jettySize=auto;html=1;entryX=0;entryY=0.5;entryDx=0;entryDy=0;fontSize=12;startSize=8;endSize=8;" edge="1" parent="1" source="TubKobpjzzUn3Yk9qgdD-4" target="TubKobpjzzUn3Yk9qgdD-73">
          <mxGeometry relative="1" as="geometry" />
        </mxCell>
        <mxCell id="TubKobpjzzUn3Yk9qgdD-76" style="edgeStyle=none;curved=1;rounded=0;orthogonalLoop=1;jettySize=auto;html=1;entryX=0;entryY=0.5;entryDx=0;entryDy=0;fontSize=12;startSize=8;endSize=8;" edge="1" parent="1" source="TubKobpjzzUn3Yk9qgdD-4" target="TubKobpjzzUn3Yk9qgdD-74">
          <mxGeometry relative="1" as="geometry" />
        </mxCell>
        <mxCell id="TubKobpjzzUn3Yk9qgdD-4" value="Contratos" style="rounded=0;whiteSpace=wrap;html=1;" vertex="1" parent="1">
          <mxGeometry x="678" y="258" width="120" height="60" as="geometry" />
        </mxCell>
        <mxCell id="TubKobpjzzUn3Yk9qgdD-5" value="Veiculo" style="rounded=0;whiteSpace=wrap;html=1;" vertex="1" parent="1">
          <mxGeometry x="-245.5" y="641" width="120" height="60" as="geometry" />
        </mxCell>
        <mxCell id="TubKobpjzzUn3Yk9qgdD-6" value="Motoristas" style="rounded=0;whiteSpace=wrap;html=1;" vertex="1" parent="1">
          <mxGeometry x="4" y="581" width="120" height="60" as="geometry" />
        </mxCell>
        <mxCell id="TubKobpjzzUn3Yk9qgdD-7" value="Viagens" style="rounded=0;whiteSpace=wrap;html=1;" vertex="1" parent="1">
          <mxGeometry x="-65" y="685" width="120" height="60" as="geometry" />
        </mxCell>
        <mxCell id="TubKobpjzzUn3Yk9qgdD-8" value="Filial" style="rounded=0;whiteSpace=wrap;html=1;" vertex="1" parent="1">
          <mxGeometry x="-562" y="564" width="120" height="60" as="geometry" />
        </mxCell>
        <mxCell id="TubKobpjzzUn3Yk9qgdD-10" value="Amazer_Temp" style="rounded=0;whiteSpace=wrap;html=1;" vertex="1" parent="1">
          <mxGeometry x="-82" y="838" width="120" height="60" as="geometry" />
        </mxCell>
        <mxCell id="TubKobpjzzUn3Yk9qgdD-11" value="Ocorrências_logísticas" style="rounded=0;whiteSpace=wrap;html=1;" vertex="1" parent="1">
          <mxGeometry x="-181" y="723" width="120" height="60" as="geometry" />
        </mxCell>
        <mxCell id="TubKobpjzzUn3Yk9qgdD-12" value="Envios" style="rounded=0;whiteSpace=wrap;html=1;" vertex="1" parent="1">
          <mxGeometry x="-396" y="668" width="120" height="60" as="geometry" />
        </mxCell>
        <mxCell id="TubKobpjzzUn3Yk9qgdD-13" value="Endereço" style="ellipse;whiteSpace=wrap;html=1;" vertex="1" parent="1">
          <mxGeometry x="119" y="-42.5" width="99" height="57" as="geometry" />
        </mxCell>
        <mxCell id="TubKobpjzzUn3Yk9qgdD-14" value="E-mail" style="ellipse;whiteSpace=wrap;html=1;" vertex="1" parent="1">
          <mxGeometry x="67" y="-344" width="99" height="57" as="geometry" />
        </mxCell>
        <mxCell id="TubKobpjzzUn3Yk9qgdD-15" value="" style="ellipse;whiteSpace=wrap;html=1;" vertex="1" parent="1">
          <mxGeometry x="14" y="-402" width="99" height="57" as="geometry" />
        </mxCell>
        <mxCell id="TubKobpjzzUn3Yk9qgdD-16" value="Telefone" style="ellipse;whiteSpace=wrap;html=1;" vertex="1" parent="1">
          <mxGeometry x="23" y="-396" width="81" height="45" as="geometry" />
        </mxCell>
        <mxCell id="TubKobpjzzUn3Yk9qgdD-17" value="Nome_comp" style="ellipse;whiteSpace=wrap;html=1;" vertex="1" parent="1">
          <mxGeometry x="-99" y="-402" width="99" height="57" as="geometry" />
        </mxCell>
        <mxCell id="TubKobpjzzUn3Yk9qgdD-18" value="CPF" style="ellipse;whiteSpace=wrap;html=1;" vertex="1" parent="1">
          <mxGeometry x="-152" y="-347" width="99" height="57" as="geometry" />
        </mxCell>
        <mxCell id="TubKobpjzzUn3Yk9qgdD-23" style="rounded=0;orthogonalLoop=1;jettySize=auto;html=1;fontSize=12;startSize=8;endSize=8;endArrow=none;startFill=0;" edge="1" parent="1" source="TubKobpjzzUn3Yk9qgdD-19" target="TubKobpjzzUn3Yk9qgdD-13">
          <mxGeometry relative="1" as="geometry" />
        </mxCell>
        <mxCell id="TubKobpjzzUn3Yk9qgdD-19" value="Logradouro" style="ellipse;whiteSpace=wrap;html=1;" vertex="1" parent="1">
          <mxGeometry x="-27" y="-123" width="99" height="57" as="geometry" />
        </mxCell>
        <mxCell id="TubKobpjzzUn3Yk9qgdD-24" style="rounded=0;orthogonalLoop=1;jettySize=auto;html=1;entryX=0;entryY=0.5;entryDx=0;entryDy=0;fontSize=12;startSize=8;endSize=8;endArrow=none;startFill=0;" edge="1" parent="1" source="TubKobpjzzUn3Yk9qgdD-20" target="TubKobpjzzUn3Yk9qgdD-13">
          <mxGeometry relative="1" as="geometry" />
        </mxCell>
        <mxCell id="TubKobpjzzUn3Yk9qgdD-20" value="CIdade" style="ellipse;whiteSpace=wrap;html=1;" vertex="1" parent="1">
          <mxGeometry x="-27" y="-68" width="99" height="57" as="geometry" />
        </mxCell>
        <mxCell id="TubKobpjzzUn3Yk9qgdD-25" style="rounded=0;orthogonalLoop=1;jettySize=auto;html=1;entryX=0;entryY=0.5;entryDx=0;entryDy=0;fontSize=12;startSize=8;endSize=8;endArrow=none;startFill=0;" edge="1" parent="1" source="TubKobpjzzUn3Yk9qgdD-21" target="TubKobpjzzUn3Yk9qgdD-13">
          <mxGeometry relative="1" as="geometry" />
        </mxCell>
        <mxCell id="TubKobpjzzUn3Yk9qgdD-21" value="CIdade" style="ellipse;whiteSpace=wrap;html=1;" vertex="1" parent="1">
          <mxGeometry x="-27" y="-11" width="99" height="57" as="geometry" />
        </mxCell>
        <mxCell id="TubKobpjzzUn3Yk9qgdD-26" style="rounded=0;orthogonalLoop=1;jettySize=auto;html=1;entryX=0;entryY=1;entryDx=0;entryDy=0;fontSize=12;startSize=8;endSize=8;endArrow=none;startFill=0;" edge="1" parent="1" source="TubKobpjzzUn3Yk9qgdD-22" target="TubKobpjzzUn3Yk9qgdD-13">
          <mxGeometry relative="1" as="geometry" />
        </mxCell>
        <mxCell id="TubKobpjzzUn3Yk9qgdD-22" value="Estado" style="ellipse;whiteSpace=wrap;html=1;" vertex="1" parent="1">
          <mxGeometry x="-27" y="46" width="99" height="57" as="geometry" />
        </mxCell>
        <mxCell id="TubKobpjzzUn3Yk9qgdD-27" value="CNPJ" style="ellipse;whiteSpace=wrap;html=1;" vertex="1" parent="1">
          <mxGeometry x="395" y="-344" width="99" height="57" as="geometry" />
        </mxCell>
        <mxCell id="TubKobpjzzUn3Yk9qgdD-28" value="Razão_social" style="ellipse;whiteSpace=wrap;html=1;" vertex="1" parent="1">
          <mxGeometry x="443" y="-401" width="99" height="57" as="geometry" />
        </mxCell>
        <mxCell id="TubKobpjzzUn3Yk9qgdD-29" value="Nome_fantasia" style="ellipse;whiteSpace=wrap;html=1;" vertex="1" parent="1">
          <mxGeometry x="547" y="-402" width="99" height="57" as="geometry" />
        </mxCell>
        <mxCell id="TubKobpjzzUn3Yk9qgdD-30" value="Área_atuação" style="ellipse;whiteSpace=wrap;html=1;" vertex="1" parent="1">
          <mxGeometry x="612.5" y="-351" width="99" height="57" as="geometry" />
        </mxCell>
        <mxCell id="TubKobpjzzUn3Yk9qgdD-34" value="Protocolo" style="rounded=0;whiteSpace=wrap;html=1;" vertex="1" parent="1">
          <mxGeometry x="-361" y="560" width="120" height="60" as="geometry" />
        </mxCell>
        <mxCell id="TubKobpjzzUn3Yk9qgdD-35" value="" style="ellipse;whiteSpace=wrap;html=1;" vertex="1" parent="1">
          <mxGeometry x="388" y="-47" width="99" height="57" as="geometry" />
        </mxCell>
        <mxCell id="TubKobpjzzUn3Yk9qgdD-36" value="Telefone" style="ellipse;whiteSpace=wrap;html=1;" vertex="1" parent="1">
          <mxGeometry x="397" y="-41" width="81" height="45" as="geometry" />
        </mxCell>
        <mxCell id="TubKobpjzzUn3Yk9qgdD-53" style="edgeStyle=none;curved=1;rounded=0;orthogonalLoop=1;jettySize=auto;html=1;fontSize=12;startSize=8;endSize=8;" edge="1" parent="1" source="TubKobpjzzUn3Yk9qgdD-52" target="TubKobpjzzUn3Yk9qgdD-2">
          <mxGeometry relative="1" as="geometry" />
        </mxCell>
        <mxCell id="TubKobpjzzUn3Yk9qgdD-54" style="edgeStyle=none;curved=1;rounded=0;orthogonalLoop=1;jettySize=auto;html=1;entryX=0.5;entryY=1;entryDx=0;entryDy=0;fontSize=12;startSize=8;endSize=8;" edge="1" parent="1" source="TubKobpjzzUn3Yk9qgdD-52" target="TubKobpjzzUn3Yk9qgdD-3">
          <mxGeometry relative="1" as="geometry" />
        </mxCell>
        <mxCell id="TubKobpjzzUn3Yk9qgdD-52" value="Clientes" style="rounded=0;whiteSpace=wrap;html=1;" vertex="1" parent="1">
          <mxGeometry x="234" y="-47" width="120" height="60" as="geometry" />
        </mxCell>
        <mxCell id="TubKobpjzzUn3Yk9qgdD-55" value="Resp_cont" style="ellipse;whiteSpace=wrap;html=1;" vertex="1" parent="1">
          <mxGeometry x="618" y="-287" width="99" height="57" as="geometry" />
        </mxCell>
        <mxCell id="TubKobpjzzUn3Yk9qgdD-64" value="Vigência" style="ellipse;whiteSpace=wrap;html=1;" vertex="1" parent="1">
          <mxGeometry x="742" y="333" width="99" height="57" as="geometry" />
        </mxCell>
        <mxCell id="TubKobpjzzUn3Yk9qgdD-65" value="Valor_mensal" style="ellipse;whiteSpace=wrap;html=1;" vertex="1" parent="1">
          <mxGeometry x="1114" y="170" width="99" height="57" as="geometry" />
        </mxCell>
        <mxCell id="TubKobpjzzUn3Yk9qgdD-66" value="Status" style="ellipse;whiteSpace=wrap;html=1;" vertex="1" parent="1">
          <mxGeometry x="634" y="333" width="99" height="57" as="geometry" />
        </mxCell>
        <mxCell id="TubKobpjzzUn3Yk9qgdD-68" value="Carga" style="rounded=0;whiteSpace=wrap;html=1;" vertex="1" parent="1">
          <mxGeometry x="839" y="637" width="120" height="60" as="geometry" />
        </mxCell>
        <mxCell id="TubKobpjzzUn3Yk9qgdD-70" value="Descrição" style="ellipse;whiteSpace=wrap;html=1;" vertex="1" parent="1">
          <mxGeometry x="798" y="710" width="99" height="57" as="geometry" />
        </mxCell>
        <mxCell id="TubKobpjzzUn3Yk9qgdD-71" value="ID" style="ellipse;whiteSpace=wrap;html=1;" vertex="1" parent="1">
          <mxGeometry x="905" y="561.5" width="99" height="57" as="geometry" />
        </mxCell>
        <mxCell id="TubKobpjzzUn3Yk9qgdD-72" value="Peso" style="ellipse;whiteSpace=wrap;html=1;" vertex="1" parent="1">
          <mxGeometry x="905" y="710" width="99" height="57" as="geometry" />
        </mxCell>
        <mxCell id="TubKobpjzzUn3Yk9qgdD-73" value="Contratos_fixos" style="rounded=0;whiteSpace=wrap;html=1;" vertex="1" parent="1">
          <mxGeometry x="1072" y="230" width="120" height="60" as="geometry" />
        </mxCell>
        <mxCell id="TubKobpjzzUn3Yk9qgdD-74" value="Contratos_sob&lt;div&gt;_demanda&lt;/div&gt;" style="rounded=0;whiteSpace=wrap;html=1;" vertex="1" parent="1">
          <mxGeometry x="1072" y="314" width="120" height="60" as="geometry" />
        </mxCell>
        <mxCell id="TubKobpjzzUn3Yk9qgdD-77" value="Por carga" style="ellipse;whiteSpace=wrap;html=1;" vertex="1" parent="1">
          <mxGeometry x="1114" y="376" width="99" height="57" as="geometry" />
        </mxCell>
        <mxCell id="TubKobpjzzUn3Yk9qgdD-85" style="edgeStyle=none;curved=1;rounded=0;orthogonalLoop=1;jettySize=auto;html=1;entryX=0;entryY=0.5;entryDx=0;entryDy=0;fontSize=12;startSize=8;endSize=8;" edge="1" parent="1" source="TubKobpjzzUn3Yk9qgdD-78" target="TubKobpjzzUn3Yk9qgdD-83">
          <mxGeometry relative="1" as="geometry" />
        </mxCell>
        <mxCell id="TubKobpjzzUn3Yk9qgdD-86" style="edgeStyle=none;curved=1;rounded=0;orthogonalLoop=1;jettySize=auto;html=1;fontSize=12;startSize=8;endSize=8;" edge="1" parent="1" source="TubKobpjzzUn3Yk9qgdD-78" target="TubKobpjzzUn3Yk9qgdD-81">
          <mxGeometry relative="1" as="geometry" />
        </mxCell>
        <mxCell id="TubKobpjzzUn3Yk9qgdD-87" style="edgeStyle=none;curved=1;rounded=0;orthogonalLoop=1;jettySize=auto;html=1;entryX=0;entryY=0.5;entryDx=0;entryDy=0;fontSize=12;startSize=8;endSize=8;" edge="1" parent="1" source="TubKobpjzzUn3Yk9qgdD-78" target="TubKobpjzzUn3Yk9qgdD-82">
          <mxGeometry relative="1" as="geometry" />
        </mxCell>
        <mxCell id="TubKobpjzzUn3Yk9qgdD-78" value="Condições_transporte" style="rounded=0;whiteSpace=wrap;html=1;" vertex="1" parent="1">
          <mxGeometry x="683" y="-8" width="120" height="60" as="geometry" />
        </mxCell>
        <mxCell id="TubKobpjzzUn3Yk9qgdD-81" value="Seguro" style="rounded=0;whiteSpace=wrap;html=1;" vertex="1" parent="1">
          <mxGeometry x="1076" y="-8" width="120" height="60" as="geometry" />
        </mxCell>
        <mxCell id="TubKobpjzzUn3Yk9qgdD-82" value="Prazo" style="rounded=0;whiteSpace=wrap;html=1;" vertex="1" parent="1">
          <mxGeometry x="1076" y="76" width="120" height="60" as="geometry" />
        </mxCell>
        <mxCell id="TubKobpjzzUn3Yk9qgdD-83" value="Penalidade" style="rounded=0;whiteSpace=wrap;html=1;" vertex="1" parent="1">
          <mxGeometry x="1076" y="-92" width="120" height="60" as="geometry" />
        </mxCell>
        <mxCell id="TubKobpjzzUn3Yk9qgdD-84" style="edgeStyle=none;curved=1;rounded=0;orthogonalLoop=1;jettySize=auto;html=1;exitX=1;exitY=1;exitDx=0;exitDy=0;fontSize=12;startSize=8;endSize=8;" edge="1" parent="1" source="TubKobpjzzUn3Yk9qgdD-72" target="TubKobpjzzUn3Yk9qgdD-72">
          <mxGeometry relative="1" as="geometry" />
        </mxCell>
        <mxCell id="TubKobpjzzUn3Yk9qgdD-88" value="Valor_declarado" style="ellipse;whiteSpace=wrap;html=1;" vertex="1" parent="1">
          <mxGeometry x="798" y="561.5" width="99" height="57" as="geometry" />
        </mxCell>
        <mxCell id="TubKobpjzzUn3Yk9qgdD-89" value="Simples" style="rounded=0;whiteSpace=wrap;html=1;" vertex="1" parent="1">
          <mxGeometry x="1112" y="595.5" width="120" height="60" as="geometry" />
        </mxCell>
        <mxCell id="TubKobpjzzUn3Yk9qgdD-90" value="Compostas" style="rounded=0;whiteSpace=wrap;html=1;" vertex="1" parent="1">
          <mxGeometry x="1112" y="679.5" width="120" height="60" as="geometry" />
        </mxCell>
        <mxCell id="TubKobpjzzUn3Yk9qgdD-91" value="Por carga" style="ellipse;whiteSpace=wrap;html=1;" vertex="1" parent="1">
          <mxGeometry x="1270" y="701" width="99" height="57" as="geometry" />
        </mxCell>
        <mxCell id="TubKobpjzzUn3Yk9qgdD-92" value="ID_tipo_carga" style="ellipse;whiteSpace=wrap;html=1;" vertex="1" parent="1">
          <mxGeometry x="1216" y="859" width="99" height="57" as="geometry" />
        </mxCell>
        <mxCell id="TubKobpjzzUn3Yk9qgdD-94" value="Tipo_carga" style="rounded=0;whiteSpace=wrap;html=1;" vertex="1" parent="1">
          <mxGeometry x="1093" y="927" width="120" height="60" as="geometry" />
        </mxCell>
        <mxCell id="TubKobpjzzUn3Yk9qgdD-101" value="Nome" style="ellipse;whiteSpace=wrap;html=1;" vertex="1" parent="1">
          <mxGeometry x="1216" y="920" width="99" height="57" as="geometry" />
        </mxCell>
        <mxCell id="TubKobpjzzUn3Yk9qgdD-102" value="Descrição" style="ellipse;whiteSpace=wrap;html=1;" vertex="1" parent="1">
          <mxGeometry x="1216" y="981" width="99" height="57" as="geometry" />
        </mxCell>
      </root>
    </mxGraphModel>
  </diagram>
</mxfile>
